# xmcd
#
# Track frame offsets:
#	150
#	24695
#	45530
#	73135
#	96053
#	131042
#	152096
#	169285
#	186625
#
# Disc length: 2654 seconds
#
# Revision: 0
# Processed by: cddbd v1.5.2PL0 Copyright (c) Steve Scherf et al.
# Submitted via: dBpowerAMP V4.0
#
DISCID=810a5c09
DTITLE=Bonnie Raitt - Live on WIR Live Radio Concert
DYEAR=1900
DGENRE=Blues
TTITLE0=Love Me Like a Man
TTITLE1=Under the Falling Sky
TTITLE2=Love Has No Pride
TTITLE3=Rollin and Tumblin
TTITLE4=Can't Find My Way Home
TTITLE5=Lonesome Road
TTITLE6=You Gotta Know How
TTITLE7=Thank You Baby
TTITLE8=Bluebird
EXTD=
EXTT0=
EXTT1=
EXTT2=
EXTT3=
EXTT4=
EXTT5=
EXTT6=
EXTT7=
EXTT8=
PLAYORDER=
